# xmcd
# 
# Track frame offsets:
#     150
#     14020
#     33595
#     52277
#     68250
#     89920
#     103945
#     129745
#     142495
#     157867
# 
# Disc length: 2417
# 
# Revision: 7
# Processed by: cddbd v1.5.2PL0 Copyright (c) Steve Scherf et al.
# Submitted via: fre:ac v1.0.31
# 
DISCID=99096f0a
DTITLE=Marius Müller-Westernhagen - Lausige Zeiten
DYEAR=1986
DGENRE=Rock
TTITLE0=Lausige Zeiten
TTITLE1=Wir sitzen alle in einem Boot
TTITLE2=Es tut weh
TTITLE3=Berlin
TTITLE4=Mir ist so heiß
TTITLE5=Kannst Du mir vertrauen
TTITLE6=Kein Gefühl
TTITLE7=Sonntagskind
TTITLE8=Schrei
TTITLE9=Tanz mit mir
EXTD=
EXTT0=
EXTT1=
EXTT2=
EXTT3=
EXTT4=
EXTT5=
EXTT6=
EXTT7=
EXTT8=
EXTT9=
PLAYORDER=
